<?xml version="1.0" encoding="utf-8"?>
<!-- Generator: Adobe Illustrator 16.0.3, SVG Export Plug-In . SVG Version: 6.00 Build 0)  -->
<!DOCTYPE svg PUBLIC "-//W3C//DTD SVG 1.1//EN" "http://www.w3.org/Graphics/SVG/1.1/DTD/svg11.dtd">
<svg version="1.1" id="Layer_1" xmlns="http://www.w3.org/2000/svg" xmlns:xlink="http://www.w3.org/1999/xlink" x="0px" y="0px"
	 width="495.466px" height="769.36px" viewBox="0 0 495.466 769.36" enable-background="new 0 0 495.466 769.36"
	 xml:space="preserve">
<path fill="#006837" d="M495.466,378.003c0-136.819-110.914-247.733-247.733-247.733S0,241.184,0,378.003
	c0,85.093,42.909,160.156,108.261,204.758l-7.792,29.081l37.425,10.029l5.167-19.288c31.798,14.846,67.261,23.152,104.67,23.152
	c37.234,0,72.541-8.229,104.225-22.944l5.113,19.08l37.425-10.029l-7.714-28.786C452.375,538.489,495.466,463.281,495.466,378.003z
	 M36.611,378.003c0-106.915,79.476-195.253,182.568-209.193L118.411,544.88C68.644,506.258,36.611,445.875,36.611,378.003z
	 M247.732,589.125c-34.18,0-66.46-8.131-95.02-22.553l94.77-353.688l94.83,353.908C313.859,581.073,281.738,589.125,247.732,589.125
	z M376.639,545.2L275.764,168.737c103.347,13.713,183.09,102.172,183.09,209.267C458.854,446.063,426.641,506.59,376.639,545.2z"/>
<g>
	<path fill="#006837" d="M111.798,98.022L130.178,0h13.036l18.236,98.022h-12.11l-3.49-21.584h-18.094l-3.847,21.584H111.798z
		 M129.607,64.754h14.034l-6.839-40.818h-0.356L129.607,64.754z"/>
	<path fill="#006837" d="M168.908,98.022V0.57h12.539v85.769h24.078v11.683H168.908z"/>
	<path fill="#006837" d="M212.927,98.022V0.57h13.25c8.975,0,16.109,2.398,21.407,7.194c5.295,4.798,7.943,11.399,7.943,19.804
		c0,8.596-2.448,15.364-7.337,20.303c-4.892,4.94-11.588,7.409-20.089,7.409h-2.635v42.742H212.927z M225.465,43.597h2.208
		c10.211,0,15.316-5.579,15.316-16.741c0-10.02-5.841-14.888-17.524-14.603V43.597z"/>
	<path fill="#006837" d="M263.732,98.022V0.57h12.538v97.452H263.732z"/>
	<path fill="#006837" d="M290.179,98.022V0.57h10.187l21.585,60.255l0.285-0.131V0.57h11.541v97.452h-10.188l-21.585-60.68
		l-0.284-0.014v60.694H290.179z"/>
	<path fill="#006837" d="M347.765,98.022V0.57h34.692v11.683h-22.155v29.135h20.302v11.683h-20.302v33.268h23.366v11.683H347.765z"
		/>
</g>
<g>
	<path fill="#006837" d="M1.384,768.078l18.379-98.021H32.8l18.236,98.021h-12.11l-3.49-21.585H17.342l-3.847,21.585H1.384z
		 M19.193,734.81h14.034l-6.838-40.819h-0.357L19.193,734.81z"/>
	<path fill="#006837" d="M58.246,768.078v-97.452h13.82c22.272,0,33.41,16.194,33.41,48.583c0,16.196-2.768,28.389-8.299,36.58
		c-5.532,8.19-13.31,12.289-23.33,12.289H58.246z M70.783,756.395h1.853c7.408,0,12.645-2.838,15.708-8.513
		c3.063-5.676,4.595-15.042,4.595-28.104c0-13.631-1.45-23.282-4.346-28.958c-2.897-5.675-8.121-8.514-15.672-8.514h-2.137V756.395z
		"/>
	<path fill="#006837" d="M126.198,769.36l-18.041-98.734h13.179l9.226,65.68l9.084-65.68h13.105l-18.045,98.734H126.198z"/>
	<path fill="#006837" d="M160.249,768.078v-97.452h34.693v11.682h-22.155v29.137h20.303v11.683h-20.303v33.269h23.366v11.683
		H160.249z"/>
	<path fill="#006837" d="M207.073,768.078v-97.452h10.187l21.584,60.253l0.286-0.129v-60.124h11.54v97.452h-10.187l-21.584-60.68
		l-0.286-0.015v60.694H207.073z"/>
	<path fill="#006837" d="M273.279,768.078v-85.771H258.32v-11.682h42.458v11.682h-14.96v85.771H273.279z"/>
	<path fill="#006837" d="M308.249,670.625h12.539v73.17c0,9.254,3.063,13.881,9.189,13.881c2.708,0,4.915-1.161,6.626-3.486
		c1.709-2.327,2.563-5.6,2.563-9.823v-73.741h12.538v72.377c0,8.549-2.162,15.077-6.482,19.589
		c-4.322,4.513-9.403,6.769-15.245,6.769c-6.222,0-11.398-2.351-15.529-7.053c-4.132-4.701-6.199-10.806-6.199-18.309V670.625z"/>
	<path fill="#006837" d="M365.388,768.078v-97.452h10.473c8.358,0,14.733,2.458,19.127,7.373c4.393,4.915,6.59,11.458,6.59,19.625
		c0,9.26-3.374,16.219-10.116,20.872c5.224,3.705,9.663,13.561,13.321,29.564l4.488,20.018h-13.142l-3.769-16.813
		c-2.688-11.777-5.031-19.27-7.026-22.474c-1.995-3.206-4.464-4.644-7.409-4.312v43.598H365.388z M377.926,712.796h0.57
		c7.028,0,10.542-4.914,10.542-14.746c0-10.446-3.704-15.695-11.112-15.743V712.796z"/>
	<path fill="#006837" d="M416.519,768.078v-97.452h34.69v11.682h-22.153v29.137h20.303v11.683h-20.303v33.269h23.365v11.683H416.519
		z"/>
	<path fill="#006837" d="M461.598,765.584V752.62c3.751,3.562,7.384,5.343,10.899,5.343c2.612,0,4.844-0.919,6.696-2.758
		c1.853-1.838,2.778-4.054,2.778-6.647c0-2.23-0.522-4.937-1.567-8.12c-1.046-3.18-3.858-9.059-8.44-17.632
		c-4.586-8.572-7.564-15.064-8.941-19.481c-1.379-4.418-2.066-8.311-2.066-11.685c0-6.554,1.863-11.907,5.593-16.063
		c3.728-4.155,8.489-6.234,14.283-6.234c3.276,0,6.767,0.856,10.47,2.564v11.825c-3.418-1.994-6.338-2.99-8.762-2.99
		c-6.314,0-9.475,3.088-9.475,9.26c0,2.278,0.535,5.021,1.604,8.228s3.894,9.048,8.479,17.523
		c4.582,8.479,7.551,14.938,8.904,19.376c1.354,4.442,2.03,8.372,2.03,11.791c0,6.651-1.864,12.051-5.593,16.207
		s-8.561,6.233-14.497,6.233C469.718,769.36,465.587,768.1,461.598,765.584z"/>
</g>
</svg>
